<svg width="1304" height="321" viewBox="0 0 1304 321" fill="none" xmlns="http://www.w3.org/2000/svg">
<path d="M1020.74 17.1501L1012.94 0L1004.54 17.9268H1004.64C1004.36 18.6441 1004.2 19.4443 1004.2 20.34C1004.2 25.0999 1008.06 28.9586 1012.82 28.9586C1017.58 28.9586 1021.44 25.0999 1021.44 20.34C1021.44 19.3863 1021.32 18.6003 1021.09 17.9268H1021.1L1021.07 17.8597C1020.98 17.6084 1020.87 17.3729 1020.74 17.1501Z" fill="white"/>
<path d="M1060.03 107.726L1060.03 107.731C1060.08 113.32 1059.64 118.919 1058.7 124.448C1056.51 137.224 1051.7 149.286 1044.63 159.717C1037.56 170.149 1028.41 178.675 1017.88 184.649C1010.93 188.592 1003.5 191.354 995.842 192.864C1003.08 197.131 1007.89 204.701 1007.89 213.328C1007.89 223.195 1001.6 231.678 992.58 235.419C991.859 238.955 991.473 242.683 991.473 246.534C991.473 263.577 999.021 278.198 1009.77 284.435C1034.28 287.056 1051.41 293.044 1051.41 300.011C1051.41 309.394 1020.35 317 982.031 317C943.714 317 912.652 309.394 912.652 300.011C912.652 292.774 931.133 286.593 957.168 284.145C967.662 277.755 974.982 263.319 974.982 246.534C974.982 242.965 974.651 239.502 974.029 236.199C963.884 232.98 956.579 223.957 956.579 213.328C956.579 204.741 961.347 197.202 968.53 192.925C961.973 191.661 955.57 189.479 949.482 186.413C938.709 180.989 929.205 172.944 921.693 162.889C914.18 152.834 908.857 141.033 906.127 128.384C904.826 122.354 904.13 116.207 904.041 110.051L904.031 110.043V89.5786H904.248C907.216 76.4062 940.34 66.0256 982.134 66.0256C1023.93 66.0256 1056.87 76.4062 1059.82 89.5786H1060.03V107.726Z" fill="white"/>
<path d="M971.349 10.4251L984.545 40.838C984.755 41.233 984.937 41.6507 985.091 42.0963L985.143 42.2152H985.132C985.527 43.4097 985.726 44.8035 985.726 46.4946C985.726 54.9356 979.201 61.7783 971.152 61.7783C963.103 61.7783 956.579 54.9356 956.579 46.4946C956.579 44.9063 956.848 43.4873 957.317 42.2152H957.162L957.78 40.8303C956.192 41.6328 954.387 42.0865 952.473 42.0865C946.125 42.0865 940.979 37.0959 940.979 30.9397C940.979 29.7813 941.191 28.7464 941.561 27.8186H941.438L952.628 4.63337L963.037 26.8142C963.202 27.1023 963.346 27.407 963.468 27.732L963.508 27.8186H963.499C963.512 27.8549 963.525 27.8914 963.537 27.9282L971.349 10.4251Z" fill="white"/>
<path d="M1051.41 91.5091C1051.41 100.892 1020.35 108.498 982.031 108.498C943.714 108.498 912.652 100.892 912.652 91.5091C912.652 82.1264 943.714 74.5201 982.031 74.5201C1020.35 74.5201 1051.41 82.1264 1051.41 91.5091Z" fill="black"/>
<path d="M0 192.625C0 175.438 3.22917 159.396 9.6875 144.5C16.1458 129.5 25.5729 116.479 37.9688 105.438C50.3646 94.3958 65.5729 85.6979 83.5938 79.3438C101.719 72.9896 122.448 69.8125 145.781 69.8125C154.219 69.8125 162.656 70.2812 171.094 71.2188C179.635 72.0521 188.021 73.4062 196.25 75.2812C204.583 77.1562 212.656 79.5521 220.469 82.4688C228.385 85.2812 235.885 88.6667 242.969 92.625L220.156 130.125C215.885 127.625 211.042 125.385 205.625 123.406C200.208 121.323 194.375 119.604 188.125 118.25C181.979 116.792 175.573 115.698 168.906 114.969C162.344 114.24 155.729 113.875 149.062 113.875C133.646 113.875 119.896 115.854 107.812 119.812C95.7292 123.667 85.5208 129.135 77.1875 136.219C68.8542 143.198 62.5 151.583 58.125 161.375C53.75 171.167 51.5625 181.896 51.5625 193.562C51.5625 205.646 53.8542 216.74 58.4375 226.844C63.0208 236.948 69.5312 245.646 77.9688 252.938C86.4062 260.229 96.6146 265.958 108.594 270.125C120.573 274.188 133.958 276.219 148.75 276.219C160.521 276.219 171.302 274.917 181.094 272.312C190.885 269.604 199.427 265.802 206.719 260.906C214.01 256.01 219.948 250.125 224.531 243.25C229.115 236.271 232.135 228.458 233.594 219.812H148.281V179.031H278.125V179.188L278.281 179.031C280.885 191.531 281.667 203.719 280.625 215.594C279.688 227.365 276.979 238.51 272.5 249.031C268.125 259.448 262.083 269.031 254.375 277.781C246.667 286.531 237.448 294.083 226.719 300.438C215.99 306.688 203.802 311.583 190.156 315.125C176.51 318.562 161.562 320.281 145.312 320.281C122.604 320.281 102.24 316.948 84.2188 310.281C66.3021 303.615 51.0938 294.5 38.5938 282.938C26.0938 271.375 16.5104 257.833 9.84375 242.312C3.28125 226.792 0 210.229 0 192.625Z" fill="white"/>
<path d="M336.719 72.7812H460.938C479.688 72.7812 495.938 74.7604 509.688 78.7188C523.438 82.5729 534.844 88.1979 543.906 95.5938C552.969 102.99 559.688 112 564.062 122.625C568.542 133.25 570.781 145.281 570.781 158.719C570.781 167.781 569.688 176.427 567.5 184.656C565.312 192.781 561.927 200.281 557.344 207.156C552.865 214.031 547.188 220.177 540.312 225.594C533.438 230.906 525.365 235.333 516.094 238.875L569.219 317H508.594L462.656 247.625H461.25L386.25 247.469V317H336.719V72.7812ZM462.188 204.656C471.562 204.656 479.74 203.562 486.719 201.375C493.802 199.188 499.688 196.115 504.375 192.156C509.167 188.198 512.708 183.406 515 177.781C517.396 172.052 518.594 165.698 518.594 158.719C518.594 145.073 513.906 134.552 504.531 127.156C495.156 119.656 481.042 115.906 462.188 115.906H386.25V204.656H462.188Z" fill="white"/>
<path d="M712.812 72.7812H765.312L883.438 317H831.406L811.875 275.906H669.219L650.312 317H598.125L712.812 72.7812ZM792.344 235.125L739.531 124.188L688.125 235.125H792.344Z" fill="white"/>
<path d="M1111.72 72.7812H1161.25V273.562H1303.28V317H1111.72V72.7812Z" fill="white"/>
</svg>
